<?xml version="1.0" standalone="no"?>
<!DOCTYPE svg PUBLIC "-//W3C//DTD SVG 20010904//EN"
 "http://www.w3.org/TR/2001/REC-SVG-20010904/DTD/svg10.dtd">
<svg version="1.0" xmlns="http://www.w3.org/2000/svg"
 width="302.000000pt" height="341.000000pt" viewBox="0 0 302.000000 341.000000"
 preserveAspectRatio="xMidYMid meet">

<g transform="translate(0.000000,341.000000) scale(0.100000,-0.100000)"
fill="#000000" stroke="none">
<path d="M1345 3064 c-104 -102 -181 -183 -170 -179 84 32 137 46 184 51 53 6
60 11 126 75 l71 69 55 -67 c55 -68 55 -68 134 -86 43 -10 105 -31 137 -46 61
-29 61 -23 2 34 -17 17 -93 99 -168 183 -99 109 -144 152 -159 152 -15 -1 -86
-63 -212 -186z"/>
<path d="M1392 2890 c-173 -24 -319 -107 -397 -226 -76 -115 -89 -173 -116
-534 -7 -85 -13 -173 -15 -195 -22 -250 -36 -424 -46 -544 -7 -83 -16 -144
-22 -146 -50 -14 -49 -13 -25 -46 19 -27 21 -38 15 -97 -6 -62 -4 -72 24 -129
66 -132 238 -246 450 -300 92 -24 125 -27 265 -27 141 0 173 3 265 27 226 58
388 169 456 312 25 53 26 61 16 119 -9 54 -8 64 9 88 25 35 24 46 -3 50 -22 3
-24 10 -35 148 -7 80 -15 170 -17 200 -3 30 -10 118 -16 195 -6 77 -15 178
-20 225 -5 47 -15 159 -20 250 -15 225 -34 293 -112 412 -61 92 -180 169 -313
203 -74 19 -258 27 -343 15z m285 -106 c191 -43 323 -164 369 -339 8 -27 14
-69 14 -92 l0 -43 -535 0 c-430 0 -537 3 -541 13 -8 21 23 149 50 211 31 70
122 163 195 200 121 62 307 83 448 50z m-537 -644 c46 -46 11 -150 -50 -150
-27 0 -29 -3 -32 -42 -2 -32 -8 -44 -22 -46 -34 -7 -38 11 -26 124 6 60 13
115 15 122 7 21 92 15 115 -8z m154 -10 c-1 -14 -4 -57 -7 -97 l-7 -72 33 -3
c27 -2 32 -7 32 -28 0 -24 -3 -25 -60 -25 l-60 0 2 55 c0 30 4 88 8 128 7 72
7 73 33 70 22 -2 27 -8 26 -28z m246 28 c0 -2 9 -49 20 -106 26 -133 26 -152
0 -152 -14 0 -25 11 -34 32 -19 44 -44 45 -62 2 -11 -26 -20 -34 -39 -34 -34
0 -32 19 11 131 48 124 51 129 79 129 14 0 25 -1 25 -2z m278 -25 c-2 -22 -9
-29 -30 -31 -25 -3 -26 -7 -33 -75 -10 -118 -13 -127 -42 -127 l-26 0 8 100
c6 97 6 100 -14 100 -17 0 -21 6 -21 30 l0 30 81 0 80 0 -3 -27z m224 -4 c26
-34 27 -136 2 -178 -26 -43 -81 -63 -129 -45 -26 10 -45 59 -45 114 0 90 44
143 114 138 28 -2 44 -10 58 -29z m-90 -444 c-3 -104 -16 -180 -43 -242 l-18
-43 -48 48 c-63 62 -144 100 -242 114 -155 23 -319 -27 -401 -120 l-40 -44
-21 48 c-11 27 -24 69 -29 94 -12 70 -22 218 -15 230 4 7 142 9 433 8 l427 -3
-3 -90z m-239 -301 c26 -9 47 -19 47 -24 0 -21 -47 -62 -102 -89 -85 -43 -176
-44 -264 -2 -54 25 -104 70 -104 92 0 37 329 55 423 23z"/>
<path d="M1077 2093 c-4 -3 -7 -15 -7 -25 0 -26 24 -17 28 10 3 21 -8 29 -21
15z"/>
<path d="M1946 2078 c-20 -28 -21 -92 -1 -108 23 -19 43 -5 56 40 21 70 -19
120 -55 68z"/>
<path d="M790 2830 l-265 -5 -3 -300 -3 -300 -189 -190 c-170 -170 -190 -193
-190 -223 0 -38 10 -61 43 -95 12 -13 62 -70 112 -127 50 -57 120 -138 157
-179 l68 -76 0 -286 0 -286 128 -6 c70 -4 162 -7 206 -7 l78 0 -72 67 -72 67
-84 -3 -84 -3 0 169 1 168 59 -65 59 -65 1 36 c0 21 -7 42 -15 49 -19 16 -20
88 0 110 13 15 9 22 -45 78 l-60 61 0 361 0 361 114 112 113 112 7 64 c4 35
15 90 26 122 10 32 14 59 10 59 -5 0 -39 -34 -77 -76 -37 -42 -96 -106 -130
-143 l-62 -66 -1 189 0 189 165 -6 c103 -3 165 -2 165 4 0 5 30 39 66 74 36
36 59 64 52 63 -7 -1 -132 -5 -278 -8z m-272 -1166 l-3 -127 -99 114 c-55 63
-107 122 -115 132 -14 16 -6 27 100 133 l114 114 3 -119 c1 -66 1 -177 0 -247z"/>
<path d="M2015 2794 c26 -23 55 -55 64 -70 l18 -29 149 0 149 0 3 -169 c1 -93
-2 -174 -7 -179 -5 -5 -29 16 -61 55 -28 34 -71 86 -95 113 -23 28 -52 61 -64
75 -25 31 -26 28 -1 -41 10 -31 22 -87 26 -125 3 -38 12 -78 19 -89 7 -11 52
-63 100 -115 l87 -95 -6 -415 -7 -415 -24 -25 c-14 -15 -25 -37 -25 -51 0 -14
-7 -34 -15 -45 -9 -12 -14 -43 -15 -89 l0 -69 40 39 40 39 0 -108 0 -107 -64
2 -64 2 -72 -66 -72 -67 84 0 c47 0 133 3 191 7 l107 6 0 226 0 226 215 215
c271 270 264 244 109 417 -154 171 -254 284 -291 329 l-33 38 0 304 c0 233 -3
304 -12 307 -7 2 -127 6 -267 7 l-253 3 47 -41z m586 -894 c41 -47 98 -113
128 -148 l54 -63 -105 -107 c-57 -59 -121 -125 -141 -147 l-37 -40 0 310 c0
261 2 307 14 295 7 -8 46 -53 87 -100z"/>
<path d="M1940 661 c-8 -5 -66 -21 -128 -37 l-114 -27 -92 -95 -92 -94 -77 93
-77 93 -112 28 c-62 15 -114 26 -116 24 -4 -4 97 -120 179 -207 24 -26 75 -81
113 -123 53 -60 73 -76 92 -74 14 2 76 56 159 137 159 157 290 291 284 291 -2
0 -11 -5 -19 -9z"/>
</g>
</svg>
